<svg xmlns="http://www.w3.org/2000/svg" width="97" height="28" viewBox="0 0 97 28">
  <defs>
    <style>
      .cls-1 {
        fill: #27292b;
      }

      .cls-1, .cls-2 {
        fill-rule: evenodd;
      }

      .cls-2 {
        fill: #FFC400;
      }
    </style>
  </defs>
  <path id="_lab." data-name=" lab." class="cls-1" d="M29.576,0.36V27h7.092V0.36H29.576Zm18.5,6.192a7.92,7.92,0,0,0-4.356,1.242,8.424,8.424,0,0,0-3.06,3.582,12.676,12.676,0,0,0-1.116,5.508,12.791,12.791,0,0,0,1.116,5.526,8.4,8.4,0,0,0,3.06,3.6,7.92,7.92,0,0,0,4.356,1.242,7.166,7.166,0,0,0,3.69-.918A5.656,5.656,0,0,0,54.092,23.8V27h7.056V6.8H54.092v3.2A5.656,5.656,0,0,0,51.77,7.47a7.166,7.166,0,0,0-3.69-.918h0Zm2.34,6.192a3.448,3.448,0,0,1,2.628,1.116,4.251,4.251,0,0,1,1.044,3.024,4.3,4.3,0,0,1-1.044,3.06A3.446,3.446,0,0,1,50.42,21.06a3.5,3.5,0,0,1-2.682-1.1,4.335,4.335,0,0,1-1.026-3.078,4.282,4.282,0,0,1,1.026-3.042,3.5,3.5,0,0,1,2.682-1.1h0ZM78.1,6.552a7.066,7.066,0,0,0-3.672.918,5.683,5.683,0,0,0-2.3,2.538V0.36H65.035V27h7.092V23.8a5.683,5.683,0,0,0,2.3,2.538,7.066,7.066,0,0,0,3.672.918,7.921,7.921,0,0,0,4.356-1.242,8.406,8.406,0,0,0,3.06-3.6,12.8,12.8,0,0,0,1.116-5.526,12.683,12.683,0,0,0-1.116-5.508,8.427,8.427,0,0,0-3.06-3.582A7.921,7.921,0,0,0,78.1,6.552h0Zm-2.34,6.192a3.5,3.5,0,0,1,2.682,1.1,4.282,4.282,0,0,1,1.026,3.042,4.335,4.335,0,0,1-1.026,3.078,3.5,3.5,0,0,1-2.682,1.1,3.444,3.444,0,0,1-2.628-1.116,4.3,4.3,0,0,1-1.044-3.06,4.249,4.249,0,0,1,1.044-3.024,3.447,3.447,0,0,1,2.628-1.116h0ZM93.085,27.55a2.928,2.928,0,0,0,3-3.15,2.918,2.918,0,0,0-2.95-3.15,2.956,2.956,0,0,0-3,3.15A2.945,2.945,0,0,0,93.085,27.55Z"/>
  <path id="_копія_2" data-name="[] копія 2" class="cls-2" d="M24,10v8H10V10H24Zm2,18H0V0H26V8H8V20H26v8Z"/>
</svg>
